<svg width="30" height="30" viewBox="0 0 30 30" fill="none" xmlns="http://www.w3.org/2000/svg">
<path d="M0.833252 7.20837C0.833252 3.68756 3.68744 0.833374 7.20825 0.833374C10.7291 0.833374 13.5833 3.68756 13.5833 7.20837V11.4584C13.5833 11.9524 13.5833 12.1994 13.5289 12.4021C13.3816 12.9521 12.952 13.3817 12.402 13.5291C12.1993 13.5834 11.9523 13.5834 11.4583 13.5834H7.20825C3.68744 13.5834 0.833252 10.7292 0.833252 7.20837Z" fill="#CE7D63"/>
<path d="M16.4166 18.5417C16.4166 18.0477 16.4166 17.8006 16.4709 17.598C16.6183 17.048 17.0479 16.6184 17.5978 16.471C17.8005 16.4167 18.0475 16.4167 18.5416 16.4167H22.7916C26.3124 16.4167 29.1666 19.2709 29.1666 22.7917C29.1666 26.3125 26.3124 29.1667 22.7916 29.1667C19.2708 29.1667 16.4166 26.3125 16.4166 22.7917V18.5417Z" fill="#CE7D63"/>
<path d="M0.833252 22.7917C0.833252 19.2709 3.68744 16.4167 7.20825 16.4167H11.0333C11.9258 16.4167 12.3721 16.4167 12.713 16.5904C13.0129 16.7432 13.2567 16.987 13.4095 17.2869C13.5833 17.6278 13.5833 18.0741 13.5833 18.9667V22.7917C13.5833 26.3125 10.7291 29.1667 7.20825 29.1667C3.68744 29.1667 0.833252 26.3125 0.833252 22.7917Z" fill="#CE7D63"/>
<path d="M16.4166 7.20837C16.4166 3.68756 19.2708 0.833374 22.7916 0.833374C26.3124 0.833374 29.1666 3.68756 29.1666 7.20837C29.1666 10.7292 26.3124 13.5834 22.7916 13.5834H18.238C18.0266 13.5834 17.9208 13.5834 17.8319 13.5734C17.093 13.4901 16.5099 12.907 16.4266 12.1681C16.4166 12.0791 16.4166 11.9734 16.4166 11.7619V7.20837Z" fill="#CE7D63"/>
</svg>
