<svg width="130" height="25" viewBox="0 0 130 25" fill="none" xmlns="http://www.w3.org/2000/svg">
<path d="M129.707 24.5H126.41V9.97285H117.222V24.5H113.941V6.67578H117.222V9.82222C117.244 9.38708 117.344 8.97983 117.523 8.60047C117.702 8.20995 117.936 7.87522 118.226 7.59628C118.527 7.30619 118.873 7.08303 119.264 6.92683C119.654 6.75946 120.073 6.67578 120.519 6.67578H126.41C126.867 6.67578 127.297 6.76504 127.699 6.94356C128.1 7.11093 128.446 7.34524 128.736 7.64649C129.038 7.93659 129.272 8.28248 129.439 8.68415C129.618 9.08582 129.707 9.51539 129.707 9.97285V24.5Z" fill="#F3DFD8"/>
<path d="M108.435 17.2699H96.6358V21.203H108.435V24.5H96.6358C96.1895 24.5 95.7655 24.4164 95.3638 24.249C94.9622 24.0705 94.6107 23.8362 94.3094 23.5461C94.0193 23.2448 93.785 22.8934 93.6065 22.4917C93.4392 22.09 93.3555 21.6604 93.3555 21.203V9.97285C93.3555 9.51539 93.4392 9.08582 93.6065 8.68415C93.785 8.28248 94.0193 7.93659 94.3094 7.64649C94.6107 7.34524 94.9622 7.11093 95.3638 6.94356C95.7655 6.76504 96.1895 6.67578 96.6358 6.67578H105.138C105.595 6.67578 106.025 6.76504 106.427 6.94356C106.828 7.11093 107.174 7.34524 107.464 7.64649C107.766 7.93659 108 8.28248 108.167 8.68415C108.346 9.08582 108.435 9.51539 108.435 9.97285V17.2699ZM96.6358 9.97285V13.9729H105.138V9.97285H96.6358Z" fill="#F3DFD8"/>
<path d="M67.6484 3.93096C67.6484 3.46234 67.7377 3.02162 67.9162 2.60879C68.0947 2.1848 68.3402 1.82218 68.6526 1.52092C68.965 1.20851 69.3277 0.96304 69.7405 0.784519C70.1645 0.59484 70.6108 0.5 71.0794 0.5H84.1003C84.5689 0.5 85.0097 0.59484 85.4225 0.784519C85.8465 0.96304 86.2147 1.20851 86.5271 1.52092C86.8395 1.82218 87.085 2.1848 87.2635 2.60879C87.442 3.02162 87.5313 3.46234 87.5313 3.93096V7.0272H84.1003V3.93096H71.0794V21.069H84.1003V15.2448H77.5899V11.8138H87.5313V21.069C87.5313 21.5377 87.442 21.984 87.2635 22.408C87.085 22.8208 86.8395 23.1834 86.5271 23.4958C86.2147 23.8082 85.8465 24.0537 85.4225 24.2322C85.0097 24.4107 84.5689 24.5 84.1003 24.5H71.0794C70.6108 24.5 70.1645 24.4107 69.7405 24.2322C69.3277 24.0537 68.965 23.8082 68.6526 23.4958C68.3402 23.1834 68.0947 22.8208 67.9162 22.408C67.7377 21.984 67.6484 21.5377 67.6484 21.069V3.93096Z" fill="#F3DFD8"/>
<path d="M63.2298 6.67578L56.7529 15.3787L63.5311 24.5H59.5478L54.7612 18.0565L49.9579 24.5H45.9746L52.7696 15.3787L46.2926 6.67578H50.2591L54.7612 12.7009L59.2466 6.67578H63.2298Z" fill="#F3DFD8"/>
<path d="M42.1928 17.2699H30.3936V21.203H42.1928V24.5H30.3936C29.9473 24.5 29.5233 24.4164 29.1216 24.249C28.72 24.0705 28.3685 23.8362 28.0673 23.5461C27.7772 23.2448 27.5428 22.8934 27.3643 22.4917C27.197 22.09 27.1133 21.6604 27.1133 21.203V9.97285C27.1133 9.51539 27.197 9.08582 27.3643 8.68415C27.5428 8.28248 27.7772 7.93659 28.0673 7.64649C28.3685 7.34524 28.72 7.11093 29.1216 6.94356C29.5233 6.76504 29.9473 6.67578 30.3936 6.67578H38.8957C39.3532 6.67578 39.7827 6.76504 40.1844 6.94356C40.5861 7.11093 40.932 7.34524 41.2221 7.64649C41.5233 7.93659 41.7576 8.28248 41.925 8.68415C42.1035 9.08582 42.1928 9.51539 42.1928 9.97285V17.2699ZM30.3936 9.97285V13.9729H38.8957V9.97285H30.3936Z" fill="#F3DFD8"/>
<path d="M3.43096 24.5H0V0.5H3.43096L17.8577 19.1109V0.5H21.2887V24.5H17.8577L3.43096 5.88912V24.5Z" fill="#F3DFD8"/>
</svg>
